<svg width="360" height="90" viewBox="0 0 360 90" fill="none" xmlns="http://www.w3.org/2000/svg">
<path d="M274.873 71.5478V22.0703H294.302V36.2713L290.326 32.2914C292.194 28.5527 294.694 25.7789 297.827 23.9698C300.959 22.1004 304.454 21.1658 308.309 21.1658C312.647 21.1658 316.473 22.3115 319.786 24.603C323.16 26.8341 325.419 30.3919 326.564 35.2764L320.328 34.2814C322.136 30.1809 324.756 26.9849 328.19 24.6934C331.685 22.3417 335.721 21.1658 340.3 21.1658C344.035 21.1658 347.379 21.9497 350.331 23.5175C353.343 25.0251 355.692 27.407 357.379 30.6633C359.126 33.9196 360 38.1407 360 43.3266V71.5478H339.577V46.8543C339.577 43.7789 339.065 41.608 338.041 40.3417C337.016 39.0151 335.691 38.3517 334.064 38.3517C332.859 38.3517 331.775 38.6533 330.811 39.2563C329.847 39.8593 329.064 40.8241 328.461 42.1507C327.919 43.4171 327.648 45.1658 327.648 47.397V71.5478H307.225V46.8543C307.225 43.7789 306.743 41.608 305.779 40.3417C304.815 39.0151 303.46 38.3517 301.712 38.3517C300.508 38.3517 299.423 38.6533 298.459 39.2563C297.495 39.8593 296.712 40.8241 296.11 42.1507C295.567 43.4171 295.296 45.1658 295.296 47.397V71.5478H274.873Z" fill="#2D3035"/>
<path d="M232.378 72.4523C228.462 72.4523 224.908 71.6684 221.715 70.1006C218.582 68.4724 216.112 65.9699 214.304 62.593C212.497 59.1558 211.593 54.7538 211.593 49.387V22.0703H232.017V45.8593C232.017 49.3568 232.589 51.799 233.734 53.186C234.878 54.5729 236.445 55.2664 238.433 55.2664C239.638 55.2664 240.752 54.9649 241.776 54.3618C242.861 53.6985 243.734 52.6432 244.397 51.196C245.06 49.6885 245.391 47.7287 245.391 45.3166V22.0703H265.814V71.5478H246.385V57.2563L250.271 61.1458C248.524 65.0051 246.024 67.8694 242.77 69.7388C239.577 71.5478 236.113 72.4523 232.378 72.4523Z" fill="#2D3035"/>
<path d="M183.97 71.5478V62.7739L182.524 60.4221V43.7789C182.524 41.3668 181.771 39.5276 180.265 38.2613C178.819 36.995 176.44 36.3618 173.126 36.3618C170.897 36.3618 168.638 36.7236 166.348 37.4472C164.059 38.1105 162.101 39.0452 160.474 40.2512L153.968 26.7738C156.86 24.9648 160.324 23.5778 164.36 22.613C168.397 21.6482 172.343 21.1658 176.199 21.1658C184.693 21.1658 191.26 23.0653 195.899 26.8643C200.598 30.6633 202.948 36.6934 202.948 44.9548V71.5478H183.97ZM169.963 72.4523C165.927 72.4523 162.553 71.7589 159.842 70.3719C157.131 68.985 155.082 67.1458 153.697 64.8543C152.311 62.5026 151.618 59.9096 151.618 57.0754C151.618 53.8794 152.432 51.1658 154.058 48.9347C155.685 46.7035 158.155 45.0151 161.468 43.8693C164.842 42.7236 169.09 42.1507 174.21 42.1507H184.512V52.0101H177.464C175.295 52.0101 173.698 52.3719 172.674 53.0955C171.71 53.7588 171.228 54.7839 171.228 56.1709C171.228 57.3166 171.65 58.2814 172.493 59.0654C173.397 59.789 174.602 60.1508 176.108 60.1508C177.494 60.1508 178.759 59.789 179.904 59.0654C181.109 58.2814 181.982 57.0754 182.524 55.4473L185.145 61.5076C184.362 65.186 182.705 67.9297 180.175 69.7388C177.644 71.5478 174.241 72.4523 169.963 72.4523Z" fill="#2D3035"/>
<path d="M123.634 72.4523C117.609 72.4523 112.338 71.3367 107.819 69.1056C103.361 66.8744 99.897 63.8292 97.427 59.9699C94.9569 56.0503 93.7219 51.6483 93.7219 46.7638C93.7219 41.7588 94.9268 37.3266 97.3366 33.4673C99.8067 29.608 103.15 26.5929 107.367 24.4221C111.645 22.2512 116.434 21.1658 121.736 21.1658C126.616 21.1658 131.104 22.1306 135.201 24.0603C139.358 25.9899 142.671 28.8542 145.141 32.6532C147.672 36.4522 148.937 41.1558 148.937 46.7638C148.937 47.4874 148.907 48.3015 148.847 49.206C148.786 50.0503 148.726 50.8342 148.666 51.5578H110.621V41.6985H137.822L130.14 44.3216C130.14 42.392 129.779 40.7638 129.056 39.4372C128.393 38.0502 127.459 36.995 126.254 36.2713C125.05 35.4874 123.604 35.0955 121.917 35.0955C120.23 35.0955 118.754 35.4874 117.489 36.2713C116.284 36.995 115.35 38.0502 114.687 39.4372C114.025 40.7638 113.693 42.392 113.693 44.3216V47.397C113.693 49.5075 114.115 51.3166 114.958 52.8241C115.802 54.3317 117.007 55.4774 118.573 56.2613C120.14 56.9849 122.037 57.3468 124.266 57.3468C126.556 57.3468 128.423 57.0453 129.869 56.4422C131.375 55.8392 132.942 54.9347 134.568 53.7287L145.232 64.4925C142.822 67.0855 139.84 69.0754 136.285 70.4624C132.791 71.789 128.574 72.4523 123.634 72.4523Z" fill="#2D3035"/>
<path d="M27.7431 90.0001C22.8632 90.0001 18.2845 89.4875 14.0071 88.4624C9.72966 87.4373 6.05468 85.8996 2.98216 83.8493L9.85015 69.9196C11.778 71.4272 14.218 72.6031 17.17 73.4473C20.1823 74.3518 23.0138 74.8041 25.6646 74.8041C29.8818 74.8041 32.8941 73.8996 34.7015 72.0905C36.5088 70.3418 37.4125 67.8091 37.4125 64.4925V60.3317L38.3162 44.9548L38.4066 29.5779V22.0703H57.8357V61.6885C57.8357 71.2764 55.1849 78.392 49.8833 83.0353C44.5817 87.6785 37.2016 90.0001 27.7431 90.0001ZM23.7669 68.8342C19.6099 68.8342 15.7241 67.8694 12.1094 65.9397C8.49462 63.9498 5.57272 61.1759 3.34363 57.6181C1.11454 54.0603 0 49.8392 0 44.9548C0 40.0703 1.11454 35.8492 3.34363 32.2914C5.57272 28.7336 8.49462 25.9899 12.1094 24.0603C15.7241 22.1306 19.6099 21.1658 23.7669 21.1658C28.0443 21.1658 31.5386 22.01 34.2496 23.6984C37.0209 25.3869 39.0693 28.01 40.3947 31.5678C41.7201 35.0653 42.3828 39.5276 42.3828 44.9548C42.3828 50.3819 41.7201 54.8744 40.3947 58.4322C39.0693 61.9297 37.0209 64.5528 34.2496 66.3016C31.5386 67.99 28.0443 68.8342 23.7669 68.8342ZM29.189 52.9146C30.8156 52.9146 32.2615 52.5829 33.5267 51.9196C34.7918 51.2563 35.7859 50.3216 36.5088 49.1156C37.2318 47.9095 37.5932 46.5226 37.5932 44.9548C37.5932 43.3266 37.2318 41.9397 36.5088 40.794C35.7859 39.5879 34.7918 38.6834 33.5267 38.0804C32.2615 37.4171 30.8156 37.0854 29.189 37.0854C27.6226 37.0854 26.1767 37.4171 24.8513 38.0804C23.5861 38.6834 22.562 39.5879 21.7788 40.794C21.0558 41.9397 20.6944 43.3266 20.6944 44.9548C20.6944 46.5226 21.0558 47.9095 21.7788 49.1156C22.562 50.3216 23.5861 51.2563 24.8513 51.9196C26.1767 52.5829 27.6226 52.9146 29.189 52.9146Z" fill="#2D3035"/>
<path d="M87.3232 71.5479H66.7079V27.4521L77.0156 37.7695L87.3232 27.4521V71.5479ZM91.5927 14.5908L77.0156 29.1816L62.4384 14.5908L77.0156 0L91.5927 14.5908Z" fill="#2D3035"/>
<rect width="20.6249" height="20.6249" transform="matrix(0.706778 -0.707436 0.706778 0.707436 62.4386 14.5908)" fill="url(#paint0_linear_907_70256)"/>
<defs>
<linearGradient id="paint0_linear_907_70256" x1="10.3172" y1="20.6249" x2="10.3268" y2="4.01658e-06" gradientUnits="userSpaceOnUse">
<stop stop-color="#004DD4"/>
<stop offset="1" stop-color="#00F078"/>
</linearGradient>
</defs>
</svg>
